#!OML:ASF H:\Terrain\Patient Classification 1\Walking\liu\liu.ASF
:FULLY-SPECIFIED
:DEGREES
265
root 9.83015 16.8631 0.491372 7.39469 -6.61519 1.28913
lowerback -5.38387 0.221662 -2.40317
upperback -1.47591 0.390974 1.81817
thorax 1.46978 0.190964 3.24869
lowerneck -21.1861 -4.4151 -11.8819
upperneck 19.9679 -5.26521 11.9802
head 10.5604 -1.93313 5.51573
rclavicle 2.33075e-014 3.81667e-014
rhumerus -45.6959 8.49161 -84.2736
rradius 40.9923
rwrist -21.6706
rhand -31.6555 -23.9169
rfingers 7.12502
rthumb -4.91614 -53.8398
lclavicle 2.33075e-014 3.81667e-014
lhumerus -31.6139 -12.3542 89.5991
lradius 23.6317
lwrist 0.476016
lhand -12.0486 -24.1088
lfingers 7.12502
lthumb 14.0102 5.39909
rfemur -15.2435 -2.24051 16.6546
rtibia 66.3209
rfoot -4.21255 -11.2773
rtoes -15.1803
lfemur -25.9739 8.41507 -27.8105
ltibia 32.8467
lfoot -13.9692 6.55332
ltoes -0.929085
266
root 9.85003 16.8713 0.616967 7.24511 -6.45846 1.50517
lowerback -5.43237 0.063338 -2.52114
upperback -1.37007 0.18771 1.79265
thorax 1.62048 0.0851822 3.27652
lowerneck -21.1396 -4.29734 -11.8847
upperneck 20.0333 -5.11416 12.0013
head 10.5546 -1.86331 5.55057
rclavicle 1.19022e-014 2.38542e-015
rhumerus -45.6398 8.63405 -84.2239
rradius 41.1419
rwrist -22.1011
rhand -32.0772 -23.9547
rfingers 7.12502
rthumb -5.32325 -53.8679
lclavicle 1.19022e-014 2.38542e-015
lhumerus -30.524 -12.6051 89.3476
lradius 23.6216
lwrist 0.554787
lhand -11.8722 -24.3237
lfingers 7.12502
lthumb 14.1801 5.1723
rfemur -16.432 -2.05459 16.6436
rtibia 66.6971
rfoot -5.98814 -11.4685
rtoes -14.4425
lfemur -24.9711 8.39651 -28.1028
ltibia 32.2105
lfoot -14.2805 6.49564
ltoes -0.166314
267
root 9.8688 16.8634 0.742899 7.05829 -6.32179 1.34017
lowerback -5.4904 -0.0853338 -2.30692
upperback -1.12732 -0.0242534 1.90468
thorax 1.91902 -0.028118 3.25816
lowerneck -21.3286 -4.1797 -12.0386
upperneck 20.1239 -4.93421 12.2038
head 10.6078 -1.76434 5.68718
rclavicle 9.56651e-015 -1.82882e-014
rhumerus -45.3059 8.26972 -83.8469
rradius 41.1272
rwrist -21.9289
rhand -31.4338 -23.7835
rfingers 7.12502
rthumb -4.70198 -53.7113
lclavicle 9.56651e-015 -1.82882e-014
lhumerus -29.2824 -12.7921 89.1137
lradius 23.6894
lwrist 0.802146
lhand -11.587 -23.8429
lfingers 7.12502
lthumb 14.455 5.63362
rfemur -17.5211 -1.89621 17.0389
rtibia 66.9132
rfoot -7.78999 -11.4873
rtoes -14.748
lfemur -23.9346 7.99846 -27.8955
ltibia 31.6037
lfoot -14.5093 6.93421
ltoes -1.07093
268
root 9.88845 16.8785 0.870757 6.86832 -6.13905 1.63109
lowerback -5.45129 -0.282384 -2.55072
upperback -1.02208 -0.273582 1.89652
thorax 2.02494 -0.157178 3.36998
lowerneck -21.2862 -4.02902 -12.015
upperneck 20.1583 -4.71606 12.1236
head 10.5776 -1.67321 5.68819
rclavicle 1.58282e-014 2.38542e-014
rhumerus -45.1121 7.95157 -83.5371
rradius 41.0928
rwrist -21.8581
rhand -30.799 -24.0288
rfingers 7.12502
rthumb -4.08907 -53.9693
lclavicle 1.58282e-014 2.38542e-014
lhumerus -28.3045 -12.6445 88.8505
lradius 23.7726
lwrist 0.419225
lhand -11.7486 -23.8727
lfingers 7.12502
lthumb 14.2993 5.61498
rfemur -18.539 -1.95697 16.8409
rtibia 66.9461
rfoot -9.4216 -11.0697
rtoes -17.9672
lfemur -22.8936 7.59454 -28.1947
ltibia 30.9989
lfoot -14.6207 7.21644
ltoes -3.03795
269
root 9.91059 16.9066 1.00004 6.63857 -5.96947 1.79217
lowerback -5.25456 -0.445116 -2.61963
upperback -0.987348 -0.49006 1.87954
thorax 1.96792 -0.265213 3.37627
lowerneck -21.3557 -3.91727 -11.9346
upperneck 20.3653 -4.57479 12.0467
head 10.6411 -1.60986 5.67602
rclavicle -1.5381e-014 8.74653e-015
rhumerus -45.2139 7.93011 -83.4078
rradius 41.2313
rwrist -22.2624
rhand -30.2487 -22.4545
rfingers 7.12502
rthumb -3.55759 -52.4046
lclavicle -1.5381e-014 8.74653e-015
lhumerus -27.5804 -13.3264 88.7632
lradius 23.9195
lwrist 0.597834
lhand -12.0359 -24.1373
lfingers 7.12502
lthumb 14.0224 5.36971
rfemur -19.4187 -1.83235 16.8183
rtibia 66.7432
rfoot -11.0624 -10.7938
rtoes -18.8155
lfemur -21.8147 7.67312 -28.4249
ltibia 30.5194
lfoot -14.9273 7.17021
ltoes -3.93152
270
root 9.92351 16.9138 1.12694 6.39354 -5.62685 2.20796
lowerback -5.26913 -0.650751 -2.9989
upperback -0.803964 -0.739711 1.76372
thorax 2.18781 -0.398686 3.4524
lowerneck -21.6687 -3.88841 -11.8428
upperneck 20.6729 -4.57608 12.126
head 10.8124 -1.58598 5.70518
rclavicle 1.5704e-014 -2.38542e-014
rhumerus -45.303 7.7941 -83.236
rradius 41.6362
rwrist -22.3991
rhand -29.4477 -21.1717
rfingers 7.12502
rthumb -2.78409 -51.1333
lclavicle 1.5704e-014 -2.38542e-014
lhumerus -26.6243 -14.6554 88.7042
lradius 24.1228
lwrist 1.5813
lhand -12.426 -24.0932
lfingers 7.12502
lthumb 13.6464 5.43942
rfemur -20.3939 -1.92287 16.5069
rtibia 66.5434
rfoot -12.7467 -10.6902
rtoes -16.1155
lfemur -20.756 7.44907 -28.8842
ltibia 30.0622
lfoot -15.5933 7.05853
ltoes -2.4982
271
root 9.93317 16.9167 1.24766 6.22974 -5.47485 1.81747
lowerback -5.19623 -0.738194 -2.66812
upperback -0.657669 -0.881144 1.94439
thorax 2.30751 -0.471581 3.44248
lowerneck -21.944 -3.89759 -11.6927
upperneck 21.0896 -4.5779 11.873
head 11.0068 -1.5983 5.60109
rclavicle 9.59136e-015 -3.26007e-014
rhumerus -45.4091 7.88896 -83.1306
rradius 42.109
rwrist -22.5124
rhand -29.2569 -22.3548
rfingers 7.12502
rthumb -2.59984 -52.3187
lclavicle 9.59136e-015 -3.26007e-014
lhumerus -25.4473 -14.2097 88.3653
lradius 23.9695
lwrist 0.965943
lhand -12.7435 -24.3073
lfingers 7.12502
lthumb 13.3405 5.24561
rfemur -21.5054 -1.59775 17.2026
rtibia 66.2007
rfoot -14.0498 -10.9507
rtoes -14.4853
lfemur -20.022 7.18831 -28.3666
ltibia 29.9019
lfoot -16.2785 7.13689
ltoes -0.946982
272
root 9.9276 16.9016 1.36032 6.14264 -5.17336 1.99155
lowerback -4.96138 -0.981367 -3.2091
upperback -0.782746 -1.18569 2.13701
thorax 2.08647 -0.62305 3.93004
lowerneck -21.7264 -3.832 -11.7413
upperneck 21.2705 -4.43607 11.6045
head 11.0055 -1.57705 5.53497
rclavicle 1.46604e-015 -1.35174e-014
rhumerus -45.7594 8.40493 -83.1261
rradius 42.5365
rwrist -23.1302
rhand -29.8887 -23.55
rfingers 7.12502
rthumb -3.20994 -53.5056
lclavicle 1.46604e-015 -1.35174e-014
lhumerus -24.6258 -12.8371 88.0369
lradius 23.8137
lwrist -0.503721
lhand -12.7655 -24.7514
lfingers 7.12502
lthumb 13.3192 4.8029
rfemur -22.7842 -1.49671 17.2874
rtibia 65.9337
rfoot -15.1433 -11.2371
rtoes -15.8612
lfemur -19.5697 7.0081 -28.5203
ltibia 29.9022
lfoot -16.4479 7.25892
ltoes -1.68933
273
root 9.94422 16.8897 1.47614 6.0574 -4.77559 1.74001
lowerback -4.76601 -1.17086 -2.89415
upperback -0.83974 -1.46163 2.24242
thorax 1.93885 -0.75543 3.84542
lowerneck -21.2674 -3.70809 -11.8627
upperneck 21.0725 -4.32548 11.8663
head 10.8395 -1.51751 5.66257
rclavicle 1.14301e-015 -7.15625e-015
rhumerus -46.0378 8.7242 -83.2263
rradius 42.7682
rwrist -23.8014
rhand -30.4323 -23.4232
rfingers 7.12502
rthumb -3.73495 -53.3702
lclavicle 1.14301e-015 -7.15625e-015
lhumerus -23.7768 -12.7221 87.7149
lradius 23.8308
lwrist -0.702617
lhand -12.386 -24.6832
lfingers 7.12502
lthumb 13.685 4.84687
rfemur -23.8453 -1.54449 17.7589
rtibia 65.4482
rfoot -16.2121 -11.6942
rtoes -17.8625
lfemur -19.0313 6.86298 -28.2854
ltibia 29.9944
lfoot -16.488 7.28923
ltoes -3.15183
274
root 9.95695 16.8838 1.59761 6.00514 -4.3508 1.70719
lowerback -5.19941 -1.28678 -2.60011
upperback -0.379837 -1.62071 2.07129
thorax 2.65696 -0.850546 3.47773
lowerneck -21.8832 -3.77485 -11.5955
upperneck 21.0321 -4.46566 11.9695
head 10.9584 -1.52922 5.63669
rclavicle 1.28216e-014 -1.27222e-014
rhumerus -45.4903 8.53731 -83.3423
rradius 42.7521
rwrist -24.2332
rhand -30.5641 -22.6378
rfingers 7.12502
rthumb -3.86216 -52.5825
lclavicle 1.28216e-014 -1.27222e-014
lhumerus -21.9501 -13.4645 87.1478
lradius 23.6774
lwrist -0.149847
lhand -12.1591 -24.4929
lfingers 7.12502
lthumb 13.9036 5.02232
rfemur -24.9158 -1.70591 17.9754
rtibia 64.8772
rfoot -17.4563 -11.8398
rtoes -19.0915
lfemur -18.3479 6.73029 -28.2759
ltibia 29.9082
lfoot -16.9163 7.0383
ltoes -4.25059
275
root 9.96444 16.8797 1.717 5.90577 -4.00552 1.82763
lowerback -4.77635 -1.52718 -2.85233
upperback -0.604871 -1.9376 2.1618
thorax 2.22486 -1.0014 3.70197
lowerneck -22.0068 -3.70041 -11.3166
upperneck 21.592 -4.35551 11.4685
head 11.1526 -1.51506 5.43762
rclavicle -2.48481e-016 -1.74931e-014
rhumerus -45.8745 8.66975 -83.2287
rradius 42.7437
rwrist -23.9498
rhand -30.1415 -21.8195
rfingers 7.12502
rthumb -3.45409 -51.7713
lclavicle -2.48481e-016 -1.74931e-014
lhumerus -21.5519 -13.5454 87.1054
lradius 23.7558
lwrist -0.0732244
lhand -12.7182 -24.6543
lfingers 7.12502
lthumb 13.3649 4.89705
rfemur -25.9709 -1.69136 18.0004
rtibia 64.1836
rfoot -18.407 -11.7906
rtoes -19.3497
lfemur -17.6398 6.5337 -28.3741
ltibia 29.6804
lfoot -17.2244 6.84232
ltoes -4.67176
276
root 9.97813 16.8699 1.85037 5.75823 -3.68215 2.01313
lowerback -4.83721 -1.69574 -3.05015
upperback -0.545323 -2.15117 2.17478
thorax 2.34669 -1.11313 3.8093
lowerneck -21.9599 -3.68816 -11.2642
upperneck 21.8335 -4.32865 11.2755
head 11.2233 -1.52443 5.36817
rclavicle -6.65929e-015 1.66979e-014
rhumerus -45.7935 8.37748 -83.0077
rradius 42.5914
rwrist -23.4345
rhand -29.6959 -21.9938
rfingers 7.12502
rthumb -3.02381 -51.9521
lclavicle -6.65929e-015 1.66979e-014
lhumerus -20.8673 -13.9263 87.0555
lradius 23.9512
lwrist 0.0787159
lhand -13.0393 -24.4898
lfingers 7.12502
lthumb 13.0553 5.08161
rfemur -26.8698 -1.74405 17.8565
rtibia 63.3989
rfoot -18.5841 -11.8291
rtoes -18.0659
lfemur -16.8985 6.25282 -28.5431
ltibia 29.4795
lfoot -17.5039 6.63992
ltoes -3.0111
277
root 9.99374 16.859 1.98856 5.63214 -3.32586 2.09763
lowerback -5.05864 -1.83017 -3.04716
upperback -0.344233 -2.32516 2.14928
thorax 2.69295 -1.20926 3.7585
lowerneck -22.1094 -3.66855 -11.1574
upperneck 21.9487 -4.29038 11.128
head 11.2832 -1.51244 5.30481
rclavicle 1.25731e-014 -1.66979e-014
rhumerus -45.6624 8.38572 -83.0708
rradius 42.5509
rwrist -23.7724
rhand -29.485 -22.7689
rfingers 7.12502
rthumb -2.82009 -52.73
lclavicle 1.25731e-014 -1.66979e-014
lhumerus -19.8435 -14.1118 86.8702
lradius 24.0579
lwrist 0.106751
lhand -12.7714 -24.2512
lfingers 7.12502
lthumb 13.3136 5.30356
rfemur -27.7079 -1.84321 17.7999
rtibia 62.4978
rfoot -18.777 -11.8669
rtoes -18.2057
lfemur -16.1414 6.0291 -28.6385
ltibia 29.3452
lfoot -17.9866 6.35771
ltoes -1.08821
278
root 9.99962 16.847 2.10809 5.66015 -2.89428 1.93492
lowerback -5.02083 -2.00423 -2.90206
upperback -0.386251 -2.56879 2.23748
thorax 2.64776 -1.32828 3.7506
lowerneck -21.9075 -3.65471 -11.3057
upperneck 21.8978 -4.27249 11.2576
head 11.23 -1.50653 5.37981
rclavicle -1.78906e-015 -3.18055e-014
rhumerus -45.96 8.64488 -83.1734
rradius 42.7607
rwrist -24.1885
rhand -29.1181 -23.1308
rfingers 7.12502
rthumb -2.46576 -53.0963
lclavicle -1.78906e-015 -3.18055e-014
lhumerus -19.1281 -14.103 86.7383
lradius 24.1658
lwrist -0.151263
lhand -13.2771 -24.4
lfingers 7.12502
lthumb 12.826 5.18599
rfemur -28.7448 -1.71117 18.0919
rtibia 61.4715
rfoot -19.9378 -11.8674
rtoes -18.4828
lfemur -15.5739 5.92315 -28.4589
ltibia 29.1767
lfoot -18.1548 6.16579
ltoes -0.472633
279
root 10.0077 16.8423 2.23103 5.58734 -2.4175 1.90686
lowerback -4.89313 -2.19491 -2.84442
upperback -0.453737 -2.82959 2.26878
thorax 2.52827 -1.45497 3.73564
lowerneck -21.7282 -3.68091 -11.5236
upperneck 22.0182 -4.32479 11.4802
head 11.2588 -1.52784 5.4989
rclavicle -5.66536e-015 7.95139e-015
rhumerus -46.2137 8.43645 -83.0253
rradius 42.697
rwrist -23.7928
rhand -29.1097 -23.3594
rfingers 7.12502
rthumb -2.45762 -53.3249
lclavicle -5.66536e-015 7.95139e-015
lhumerus -18.617 -14.2452 86.6321
lradius 24.3876
lwrist -0.275061
lhand -14.0597 -24.3942
lfingers 7.12502
lthumb 12.0716 5.23762
rfemur -29.6006 -1.67831 18.1891
rtibia 60.3456
rfoot -20.8531 -11.9462
rtoes -16.7786
lfemur -14.8266 5.80976 -28.4135
ltibia 28.9315
lfoot -18.2777 5.95997
ltoes -0.0696347
